HIERARCHY
ROOT hip
{
	OFFSET 0.00000 0.00000 0.00000
	CHANNELS 6 Xposition Yposition Zposition Zrotation Yrotation Xrotation 
	JOINT lhipjoint
	{
		OFFSET 0 0 0
		CHANNELS 3 Zrotation Yrotation Xrotation
		JOINT lfemur
		{
			OFFSET 1.57314 -1.85774 0.63783
			CHANNELS 3 Zrotation Yrotation Xrotation
			JOINT ltibia
			{
				OFFSET 2.57982 -7.08799 0.00000
				CHANNELS 3 Zrotation Yrotation Xrotation
				JOINT lfoot
				{
					OFFSET 2.63993 -7.25315 0.00000
					CHANNELS 3 Zrotation Yrotation Xrotation
					JOINT ltoes
					{
						OFFSET 0.16864 -0.46332 2.12791
						CHANNELS 3 Zrotation Yrotation Xrotation
						End Site
						{
							OFFSET 0.00000 -0.00000 1.09718
						}
					}
				}
			}
		}
	}
	JOINT rhipjoint
	{
		OFFSET 0 0 0
		CHANNELS 3 Zrotation Yrotation Xrotation
		JOINT rfemur
		{
			OFFSET -1.56006 -1.85774 0.63784
			CHANNELS 3 Zrotation Yrotation Xrotation
			JOINT rtibia
			{
				OFFSET -2.54246 -6.98536 0.00000
				CHANNELS 3 Zrotation Yrotation Xrotation
				JOINT rfoot
				{
					OFFSET -2.65791 -7.30256 0.00000
					CHANNELS 3 Zrotation Yrotation Xrotation
					JOINT rtoes
					{
						OFFSET -0.18435 -0.50650 2.16316
						CHANNELS 3 Zrotation Yrotation Xrotation
						End Site
						{
							OFFSET -0.00000 -0.00000 1.11780
						}
					}
				}
			}
		}
	}
	JOINT lowerback
	{
		OFFSET 0 0 0
		CHANNELS 3 Zrotation Yrotation Xrotation
		JOINT upperback
		{
			OFFSET -0.00136 1.92812 -0.29638
			CHANNELS 3 Zrotation Yrotation Xrotation
			JOINT thorax
			{
				OFFSET -0.00528 1.96223 -0.02928
				CHANNELS 3 Zrotation Yrotation Xrotation
				JOINT lowerneck
				{
					OFFSET 0 0 0
					CHANNELS 3 Zrotation Yrotation Xrotation
					JOINT upperneck
					{
						OFFSET -0.01015 1.75586 0.07797
						CHANNELS 3 Zrotation Yrotation Xrotation
						JOINT head
						{
							OFFSET 0.05540 1.72452 0.04558
							CHANNELS 3 Zrotation Yrotation Xrotation
							End Site
							{
								OFFSET 0.02170 1.79958 0.00864
							}
						}
					}
				}
				JOINT lclavicle
				{
					OFFSET 0 0 0
					CHANNELS 3 Zrotation Yrotation Xrotation
					JOINT lhumerus
					{
						OFFSET 3.16292 1.29277 -0.65728
						CHANNELS 3 Zrotation Yrotation Xrotation
						JOINT lradius
						{
							OFFSET 5.52302 -0.00000 -0.00000
							CHANNELS 3 Zrotation Yrotation Xrotation
							JOINT lwrist
							{
								OFFSET 3.58675 -0.00000 -0.00000
								CHANNELS 3 Zrotation Yrotation Xrotation
								JOINT lhand
								{
									OFFSET 0 0 0
									CHANNELS 3 Zrotation Yrotation Xrotation
									JOINT lfingers
									{
										OFFSET 0.53641 -0.00000 -0.00000
										CHANNELS 3 Zrotation Yrotation Xrotation
										End Site
										{
											OFFSET 0.43247 -0.00000 -0.00000
										}
									}
								}
								JOINT lthumb
								{
									OFFSET 0 0 0
									CHANNELS 3 Zrotation Yrotation Xrotation
									End Site
									{
										OFFSET 0.43907 -0.00000 0.43907
									}
								}
							}
						}
					}
				}
				JOINT rclavicle
				{
					OFFSET 0 0 0
					CHANNELS 3 Zrotation Yrotation Xrotation
					JOINT rhumerus
					{
						OFFSET -3.08296 1.43376 -0.52927
						CHANNELS 3 Zrotation Yrotation Xrotation
						JOINT rradius
						{
							OFFSET -5.84780 -0.00000 0.00000
							CHANNELS 3 Zrotation Yrotation Xrotation
							JOINT rwrist
							{
								OFFSET -3.62717 -0.00000 -0.00000
								CHANNELS 3 Zrotation Yrotation Xrotation
								JOINT rhand
								{
									OFFSET 0 0 0
									CHANNELS 3 Zrotation Yrotation Xrotation
									JOINT rfingers
									{
										OFFSET -0.65052 -0.00000 -0.00000
										CHANNELS 3 Zrotation Yrotation Xrotation
										End Site
										{
											OFFSET -0.52446 -0.00000 -0.00000
										}
									}
								}
								JOINT rthumb
								{
									OFFSET 0 0 0
									CHANNELS 3 Zrotation Yrotation Xrotation
									End Site
									{
										OFFSET -0.53247 -0.00000 0.53247
									}
								}
							}
						}
					}
				}
			}
		}
	}
}
MOTION
Frames: 9
Frame Time: 0.033333
-1.0597 18.7968 17.9499 -161.2195 99.7768 -162.5290 0.0000 0.0000 0.0000 -20.0428 -2.6054 -7.6580 3.0700 9.4641 28.6696 -0.0613 2.1454 -5.5908 0.8623 -3.7226 -10.5842 0.0000 0.0000 0.0000 21.6029 15.8320 -7.4854 -3.8417 -11.1450 33.9487 -0.0637 -2.1806 -6.1849 -0.4412 -0.4668 1.3369 -0.9287 -3.5211 9.7231 -0.3336 -4.7076 2.4029 0.5948 -2.3383 -2.6326 0.6886 -8.9270 -0.1817 3.1254 -11.9803 16.5899 0.2959 -5.4571 5.5042 0.0000 0.0000 0.0000 -85.5246 -6.9334 24.2360 10.4428 -16.8462 -2.0538 0.0000 0.0000 -14.2554 41.2876 21.4031 16.8743 -7.4996 0.0000 0.0000 12.7229 57.8842 3.7945 0.0000 0.0000 0.0000 88.1223 -3.8346 14.0403 -15.7615 24.8806 -3.6766 0.0000 0.0000 16.7034 -21.0830 15.9915 -5.7354 7.4996 0.0000 0.0000 5.3926 -14.6240 3.9673
-1.0460 18.8632 18.0128 -161.4729 99.7036 -162.7760 0.0000 0.0000 0.0000 -20.1204 -2.6210 -7.6854 3.0820 9.4986 28.7754 -0.0613 2.1544 -5.6040 0.8660 -3.7385 -10.6296 0.0000 0.0000 0.0000 21.6781 15.8798 -7.5105 -3.8554 -11.1829 34.0659 -0.0639 -2.2066 -6.1995 -0.4426 -0.4613 1.3214 -0.9254 -3.5270 9.7572 -0.3335 -4.7149 2.4097 0.5936 -2.3420 -2.6437 0.6950 -8.9362 -0.1899 3.1250 -11.9918 16.6579 0.2934 -5.4607 5.5268 0.0000 0.0000 0.0000 -85.8350 -6.9508 24.3378 10.4827 -16.9097 -2.0623 0.0000 0.0000 -14.3149 41.4331 21.4801 16.9357 -7.5259 0.0000 0.0000 12.7697 58.0903 3.8093 0.0000 0.0000 0.0000 88.4305 -3.8450 14.0963 -15.8196 24.9717 -3.6907 0.0000 0.0000 16.7603 -21.1581 16.0459 -5.7554 7.5259 0.0000 0.0000 5.4106 -14.6767 3.9803
-1.0893 18.7036 17.8617 -161.0512 100.1325 -162.3763 0.0000 0.0000 0.0000 -19.9296 -2.5798 -7.6192 3.0525 9.4150 28.5182 -0.0615 2.1319 -5.5761 0.8566 -3.6986 -10.5158 0.0000 0.0000 0.0000 21.4979 15.7698 -7.4509 -3.8223 -11.0924 33.7857 -0.0634 -2.1332 -6.1686 -0.4392 -0.4789 1.3707 -0.9372 -3.5166 9.6753 -0.3345 -4.7029 2.3944 0.5984 -2.3360 -2.6158 0.6773 -8.9274 -0.1657 3.1327 -11.9826 16.4887 0.3015 -5.4613 5.4707 0.0000 0.0000 0.0000 -85.0837 -6.9131 24.0834 10.3849 -16.7547 -2.0410 0.0000 0.0000 -14.1664 41.0832 21.2941 16.7870 -7.4628 0.0000 0.0000 12.6559 57.5937 3.7729 0.0000 0.0000 0.0000 87.6911 -3.8219 13.9579 -15.6785 24.7507 -3.6562 0.0000 0.0000 16.6248 -20.9769 15.9161 -5.7075 7.4628 0.0000 0.0000 5.3680 -14.5493 3.9496
-1.0726 18.5624 17.7267 -159.6808 99.1681 -160.9905 0.0000 0.0000 0.0000 -19.7826 -2.5635 -7.5619 3.0300 9.3444 28.3052 -0.0609 2.1165 -5.5308 0.8505 -3.6721 -10.4403 0.0000 0.0000 0.0000 21.3351 15.6468 -7.3940 -3.7935 -11.0080 33.5294 -0.0629 -2.1260 -6.1185 -0.4358 -0.4718 1.3504 -0.9269 -3.4868 9.6022 -0.3314 -4.6628 2.3755 0.5923 -2.3161 -2.5969 0.6741 -8.8490 -0.1681 3.1035 -11.8771 16.3689 0.2975 -5.4124 5.4309 0.0000 0.0000 0.0000 -84.4457 -6.8574 23.9095 10.3080 -16.6302 -2.0262 0.0000 0.0000 -14.0640 40.7730 21.1341 16.6612 -7.4064 0.0000 0.0000 12.5613 57.1598 3.7451 0.0000 0.0000 0.0000 87.0278 -3.7915 13.8557 -15.5613 24.5655 -3.6292 0.0000 0.0000 16.4983 -20.8190 15.7950 -5.6643 7.4064 0.0000 0.0000 5.3270 -14.4400 3.9193
-1.0322 18.5316 17.6963 -158.7176 98.0628 -160.0007 0.0000 0.0000 0.0000 -19.7650 -2.5732 -7.5502 3.0276 9.3314 28.2684 -0.0603 2.1162 -5.5072 0.8506 -3.6721 -10.4407 0.0000 0.0000 0.0000 21.2974 15.6028 -7.3789 -3.7876 -10.9867 33.4678 -0.0627 -2.1630 -6.0925 -0.4348 -0.4551 1.3035 -0.9109 -3.4667 9.5858 -0.3280 -4.6345 2.3678 0.5840 -2.3020 -2.5968 0.6818 -8.7850 -0.1846 3.0731 -11.7891 16.3626 0.2892 -5.3688 5.4288 0.0000 0.0000 0.0000 -84.3241 -6.8305 23.9058 10.2976 -16.6114 -2.0257 0.0000 0.0000 -14.0609 40.7049 21.1022 16.6376 -7.3937 0.0000 0.0000 12.5448 57.0688 3.7420 0.0000 0.0000 0.0000 86.8769 -3.7783 13.8469 -15.5409 24.5319 -3.6255 0.0000 0.0000 16.4662 -20.7861 15.7644 -5.6543 7.3937 0.0000 0.0000 5.3158 -14.4184 3.9106
-1.3122 18.8840 18.0393 -166.4500 106.2787 -167.9223 0.0000 0.0000 0.0000 -20.0379 -2.5275 -7.6875 3.0678 9.4924 28.7378 -0.0649 2.1348 -5.7095 0.8564 -3.7005 -10.5199 0.0000 0.0000 0.0000 21.7180 16.0213 -7.5385 -3.8571 -11.2160 34.1444 -0.0643 -1.9309 -6.3159 -0.4449 -0.5713 1.6303 -1.0258 -3.6294 9.7712 -0.3533 -4.8619 2.4380 0.6445 -2.4150 -2.6181 0.6356 -9.2852 -0.0751 3.3019 -12.4742 16.5327 0.3475 -5.7046 5.4855 0.0000 0.0000 0.0000 -85.8028 -7.0658 24.1179 10.4480 -16.8679 -2.0452 0.0000 0.0000 -14.1918 41.4822 21.4822 16.9271 -7.5373 0.0000 0.0000 12.7544 58.1285 3.7920 0.0000 0.0000 0.0000 88.5730 -3.8973 14.0146 -15.8001 24.9501 -3.6785 0.0000 0.0000 16.8111 -21.1704 16.0937 -5.7656 7.5373 0.0000 0.0000 5.4325 -14.6766 3.9997
-1.3058 18.8193 17.9775 -165.8465 105.8698 -167.3126 0.0000 0.0000 0.0000 -19.9700 -2.5195 -7.6612 3.0574 9.4600 28.6398 -0.0646 2.1276 -5.6892 0.8535 -3.6882 -10.4847 0.0000 0.0000 0.0000 21.6435 15.9655 -7.5125 -3.8439 -11.1774 34.0271 -0.0641 -1.9262 -6.2935 -0.4434 -0.5686 1.6226 -1.0216 -3.6163 9.7377 -0.3520 -4.8443 2.4294 0.6419 -2.4063 -2.6094 0.6338 -9.2511 -0.0757 3.2893 -12.4282 16.4771 0.3459 -5.6834 5.4670 0.0000 0.0000 0.0000 -85.5097 -7.0408 24.0370 10.4126 -16.8105 -2.0383 0.0000 0.0000 -14.1441 41.3400 21.4088 16.8693 -7.5114 0.0000 0.0000 12.7109 57.9296 3.7791 0.0000 0.0000 0.0000 88.2693 -3.8836 13.9673 -15.7462 24.8649 -3.6660 0.0000 0.0000 16.7533 -21.0980 16.0383 -5.7458 7.5114 0.0000 0.0000 5.4138 -14.6264 3.9859
-1.3235 18.5482 17.7194 -164.1176 105.2339 -165.5857 0.0000 0.0000 0.0000 -19.6680 -2.4700 -7.5500 3.0109 9.3214 28.2178 -0.0642 2.0940 -5.6209 0.8398 -3.6292 -10.3170 0.0000 0.0000 0.0000 21.3340 15.7526 -7.4070 -3.7882 -11.0193 33.5426 -0.0632 -1.8602 -6.2179 -0.4372 -0.5755 1.6415 -1.0206 -3.5777 9.5979 -0.3496 -4.7940 2.3980 0.6396 -2.3813 -2.5679 0.6164 -9.1645 -0.0588 3.2658 -12.3137 16.2200 0.3483 -5.6342 5.3818 0.0000 0.0000 0.0000 -84.2607 -6.9542 23.6569 10.2562 -16.5600 -2.0063 0.0000 0.0000 -13.9213 40.7451 21.0974 16.6225 -7.4037 0.0000 0.0000 12.5238 57.0916 3.7217 0.0000 0.0000 0.0000 87.0041 -3.8343 13.7527 -15.5144 24.5000 -3.6109 0.0000 0.0000 16.5165 -20.7926 15.8114 -5.6635 7.4037 0.0000 0.0000 5.3380 -14.4135 3.9306
-1.2694 18.2937 17.4754 -161.2148 102.9133 -162.6400 0.0000 0.0000 0.0000 -19.4122 -2.4491 -7.4472 2.9720 9.1958 27.8399 -0.0628 2.0682 -5.5303 0.8297 -3.5851 -10.1919 0.0000 0.0000 0.0000 21.0390 15.5196 -7.3027 -3.7365 -10.8653 33.0767 -0.0623 -1.8724 -6.1178 -0.4310 -0.5527 1.5773 -0.9931 -3.5153 9.4658 -0.3422 -4.7090 2.3616 0.6240 -2.3391 -2.5365 0.6161 -8.9927 -0.0735 3.1975 -12.0811 16.0169 0.3363 -5.5247 5.3143 0.0000 0.0000 0.0000 -83.1215 -6.8442 23.3656 10.1217 -16.3410 -1.9814 0.0000 0.0000 -13.7490 40.1854 20.8108 16.3981 -7.3016 0.0000 0.0000 12.3559 56.3116 3.6736 0.0000 0.0000 0.0000 85.8039 -3.7752 13.5772 -15.3064 24.1704 -3.5636 0.0000 0.0000 16.2854 -20.5087 15.5904 -5.5853 7.3016 0.0000 0.0000 5.2626 -14.2179 3.8746
